<?xml version="1.0" encoding="UTF-8"?>
<!DOCTYPE svg PUBLIC "-//W3C//DTD SVG 1.1//EN" "http://www.w3.org/Graphics/SVG/1.1/DTD/svg11.dtd">
<!-- Creator: CorelDRAW 2023 -->
<svg xmlns="http://www.w3.org/2000/svg" xml:space="preserve" width="358.25mm" height="358.25mm" version="1.1" style="shape-rendering:geometricPrecision; text-rendering:geometricPrecision; image-rendering:optimizeQuality; fill-rule:evenodd; clip-rule:evenodd"
viewBox="0 0 31446.29 31446.29"
 xmlns:xlink="http://www.w3.org/1999/xlink"
 xmlns:xodm="http://www.corel.com/coreldraw/odm/2003">
 <defs>
  <style type="text/css">
   <![CDATA[
    .fil0 {fill:none}
    .fil3 {fill:#95683B;fill-rule:nonzero}
    .fil2 {fill:#567C39;fill-rule:nonzero}
    .fil1 {fill:#354066;fill-rule:nonzero}
   ]]>
  </style>
 </defs>
 <g id="Layer_x0020_1">
  <metadata id="CorelCorpID_0Corel-Layer"/>
  <rect class="fil0" width="31446.29" height="31446.29"/>
  <g id="_105553417207232">
   <path class="fil1" d="M9460.61 16773.77c-104.88,0 -202.12,-17.34 -291.77,-51.97 -89.81,-34.84 -167.73,-83.97 -233.91,-147.39 -66.18,-63.62 -117.62,-138.65 -154.29,-225.18 -36.66,-86.36 -54.98,-180.76 -54.98,-282.88 0,-102.28 18.31,-196.55 54.98,-283.04 36.66,-86.52 88.39,-161.43 155.26,-225.02 66.75,-63.62 144.71,-112.75 233.79,-147.42 89.09,-34.64 186.77,-52.14 292.9,-52.14 112.59,0 215.44,19.37 308.54,58.02 92.94,38.69 171.59,95.98 235.78,171.87l-165 155.3c-49.87,-53.59 -105.45,-93.99 -167.04,-120.75 -61.59,-26.97 -128.46,-40.4 -200.54,-40.4 -72.03,0 -137.92,11.9 -197.49,35.37 -59.6,23.63 -111.33,57.01 -155.3,100.29 -43.81,43.25 -77.91,94.36 -102.11,153.23 -24.36,59.04 -36.38,123.92 -36.38,194.69 0,70.73 12.03,135.49 36.38,194.49 24.2,59.03 58.3,110.03 102.11,153.27 43.98,43.25 95.7,76.62 155.3,100.25 59.57,23.67 125.46,35.4 197.49,35.4 72.07,0 138.94,-13.47 200.54,-40.23 61.59,-26.97 117.17,-67.93 167.04,-122.91l165 157.25c-64.19,74.63 -142.84,131.63 -235.78,170.89 -93.1,39.39 -196.52,59 -310.52,59z"/>
   <path class="fil1" d="M10362.71 16435.76l68.74 -200.41 742.98 0 68.74 200.41 -880.46 0zm-285.07 318.4l619.06 -1375.77 251.69 0 620.94 1375.77 -267.29 0 -532.54 -1240.16 102.11 0 -530.54 1240.16 -263.43 0z"/>
   <path class="fil1" d="M12693.57 16754.16l-347.92 -499.16 273.17 0 349.78 499.16 -275.03 0zm-644.69 -489.42l-114.01 -121.76 412.8 0c112.55,0 197.49,-24.2 254.49,-72.76 56.89,-48.44 85.39,-115.88 85.39,-202.41 0,-87.79 -28.5,-155.26 -85.39,-202.41 -57,-47.26 -141.94,-70.72 -254.49,-70.72l-412.8 0 114.01 -125.79 0 795.84zm-255.55 489.42l0 -1375.77 566.08 0c121.89,0 226.32,19.61 313.41,59 87.22,39.39 154.41,95.7 201.51,169.02 47.14,73.33 70.77,160.59 70.77,261.4 0,100.86 -23.63,187.62 -70.77,260.43 -47.1,72.59 -114.3,128.3 -201.51,167 -87.09,38.65 -191.52,58.02 -313.41,58.02l-424.54 0 114.01 -115.88 0 516.79 -255.55 0z"/>
   <path class="fil1" d="M13515.03 15950.32l683.94 0 0 210.28 -683.94 0 0 -210.28zm19.61 589.55l776.36 0 0 214.3 -1031.87 0 0 -1375.77 1004.38 0 0 214.26 -748.86 0 0 947.22z"/>
   <path class="fil1" d="M15326.95 16435.76l68.78 -200.41 742.94 0 68.78 200.41 -880.5 0zm-284.86 318.4l619.07 -1375.77 251.49 0 621.09 1375.77 -267.28 0 -532.7 -1240.16 102.28 0 -530.67 1240.16 -263.27 0z"/>
   <polygon class="fil1" points="16968.02,16754.16 16968.02,15594.68 16512.09,15594.68 16512.09,15378.39 17679.49,15378.39 17679.49,15594.68 17223.56,15594.68 17223.56,16754.16 "/>
   <polygon class="fil1" points="18512.69,16754.16 18512.69,15378.39 18722.92,15378.39 19585.8,16437.74 19481.66,16437.74 19481.66,15378.39 19735.18,15378.39 19735.18,16754.16 19524.9,16754.16 18662.06,15694.8 18766.21,15694.8 18766.21,16754.16 "/>
   <path class="fil1" d="M21124.59 16754.16l0 -182.75 -31.39 -29.52 0 -491.29 241.63 0 0 703.56 -210.24 0zm-369.4 19.61c-94.4,0 -183.48,-15.03 -267.28,-45.28 -83.97,-30.05 -158.27,-74.91 -223.03,-134.48 -64.88,-59.6 -116,-132.76 -153.39,-219.17 -37.24,-86.48 -56.03,-186.04 -56.03,-298.79 0,-106.14 18.35,-202.65 55.01,-289.9 36.66,-87.09 88.8,-162.7 156.28,-226.89 67.44,-64.15 146.37,-113.72 236.75,-148.4 90.54,-34.64 189.37,-52.14 296.8,-52.14 116.57,0 221.73,19.08 315.4,57.01 93.67,37.96 172.72,93.7 236.91,167.03l-161.15 157.25c-53.72,-53.71 -111.7,-93.39 -174.02,-118.88 -62.16,-25.5 -130.62,-38.38 -205.25,-38.38 -72.07,0 -138.93,11.9 -200.53,35.37 -61.59,23.63 -114.58,57.01 -159.17,100.29 -44.54,43.25 -78.89,94.98 -103.13,155.27 -24.32,60.29 -36.5,127.04 -36.5,200.37 0,78.77 12.46,147.83 37.39,207.4 24.88,59.6 59.28,109.75 103.25,150.39 43.84,40.56 93.67,71.49 149.41,92.41 55.55,20.91 114.3,31.35 175.73,31.35 72.07,0 142.23,-14.75 210.28,-44.1 68.17,-29.52 125.17,-75.08 171.02,-136.67l108.16 135.66c-45.84,89.08 -114.05,155.14 -204.43,198.38 -90.38,43.28 -193.35,64.89 -308.49,64.89z"/>
   <path class="fil1" d="M22311.56 16773.77c-188.63,0 -336.31,-52.99 -443.17,-159.12 -106.7,-106.13 -160.13,-259.41 -160.13,-459.95l0 -776.31 255.55 0 0 766.45c0,141.51 30.37,244.51 91.39,308.66 60.86,64.19 146.94,96.27 258.4,96.27 111.28,0 197.08,-32.07 257.37,-96.27 60.29,-64.15 90.54,-167.15 90.54,-308.66l0 -766.45 251.54 0 0 776.31c0,200.54 -53.43,353.81 -160.3,459.95 -106.7,106.13 -253.81,159.12 -441.19,159.12z"/>
   <path class="fil1" d="M24219.91 16754.16l-347.92 -499.16 273.3 0 349.78 499.16 -275.16 0zm-644.56 -489.42l-114.01 -121.76 412.64 0c112.75,0 197.53,-24.2 254.54,-72.76 57,-48.44 85.5,-115.88 85.5,-202.41 0,-87.79 -28.5,-155.26 -85.5,-202.41 -57.01,-47.26 -141.79,-70.72 -254.54,-70.72l-412.64 0 114.01 -125.79 0 795.84zm-255.56 489.42l0 -1375.77 566.08 0c121.76,0 226.19,19.61 313.41,59 87.09,39.39 154.25,95.7 201.39,169.02 47.26,73.33 70.77,160.59 70.77,261.4 0,100.86 -23.51,187.62 -70.77,260.43 -47.14,72.59 -114.3,128.3 -201.39,167 -87.22,38.65 -191.64,58.02 -313.41,58.02l-424.54 0 114.01 -115.88 0 516.79 -255.56 0z"/>
   <path class="fil1" d="M25705.71 16754.16l-347.92 -499.16 273.3 0 349.75 499.16 -275.12 0zm-644.56 -489.42l-114.01 -121.76 412.64 0c112.71,0 197.53,-24.2 254.54,-72.76 57,-48.44 85.5,-115.88 85.5,-202.41 0,-87.79 -28.5,-155.26 -85.5,-202.41 -57.01,-47.26 -141.83,-70.72 -254.54,-70.72l-412.64 0 114.01 -125.79 0 795.84zm-255.56 489.42l0 -1375.77 565.92 0c121.89,0 226.32,19.61 313.57,59 87.09,39.39 154.25,95.7 201.39,169.02 47.26,73.33 70.73,160.59 70.73,261.4 0,100.86 -23.47,187.62 -70.73,260.43 -47.14,72.59 -114.3,128.3 -201.39,167 -87.25,38.65 -191.68,58.02 -313.57,58.02l-424.38 0 114.01 -115.88 0 516.79 -255.56 0z"/>
   <path class="fil1" d="M26381.78 16435.76l68.74 -200.41 742.82 0 68.74 200.41 -880.29 0zm-285.07 318.4l619.1 -1375.77 251.49 0 621.1 1375.77 -267.28 0 -532.55 -1240.16 102.12 0 -530.55 1240.16 -263.43 0z"/>
   <path class="fil2" d="M8778.37 17686.47l295.63 0 0 50.31 -295.63 0 0 -50.31zm6.29 258.11l336.47 0 0 51.16 -395.46 0 0 -559.34 383.45 0 0 51.11 -324.45 0 0 457.07z"/>
   <polygon class="fil2" points="9339.98,17995.74 9339.98,17436.41 9388.83,17436.41 9644.5,17872.68 9618.87,17872.68 9872.11,17436.41 9920.96,17436.41 9920.96,17995.74 9864.24,17995.74 9864.24,17525.03 9877.71,17525.03 9644.5,17924.52 9616.44,17924.52 9381.51,17525.03 9396.7,17525.03 9396.7,17995.74 "/>
   <path class="fil2" d="M10242.09 17795.9l-26.35 -28.62 175.03 0c55.87,0 98.42,-12.18 127.33,-36.38 29.07,-24.36 43.57,-58.42 43.57,-102.73 0,-44.66 -14.5,-79.33 -43.57,-103.81 -28.91,-24.49 -71.46,-36.83 -127.33,-36.83l-175.03 0 26.35 -27.93 0 336.31zm-59.16 199.84l0 -559.34 209.43 0c47.43,0 88.07,7.59 122.17,22.78 34.11,15.19 60.29,37.07 78.77,65.45 18.35,28.62 27.53,63.17 27.53,103.53 0,39.43 -9.17,73.37 -27.53,101.87 -18.48,28.5 -44.66,50.55 -78.77,65.86 -34.1,15.47 -74.74,23.22 -122.17,23.22l-176.62 0 26.35 -27.93 0 204.56 -59.16 0z"/>
   <path class="fil2" d="M11081.01 17947.74c33.53,0 64.6,-5.72 93.14,-17.17 28.5,-11.49 53.26,-27.65 74.3,-48.73 20.91,-21.03 37.39,-45.56 49.12,-73.49 11.61,-27.94 17.5,-58.71 17.5,-92.38 0,-33.53 -5.89,-64.31 -17.5,-92.25 -11.73,-27.93 -28.21,-52.42 -49.12,-73.49 -21.04,-21.03 -45.8,-37.24 -74.3,-48.68 -28.55,-11.45 -59.61,-17.18 -93.14,-17.18 -33.5,0 -64.73,5.72 -93.51,17.18 -28.67,11.45 -53.6,27.65 -74.63,48.68 -21.08,21.07 -37.52,45.56 -49.58,73.49 -12.02,27.93 -18.03,58.71 -18.03,92.25 0,33.09 6.01,63.75 18.03,91.96 12.06,28.22 28.5,52.87 49.58,73.9 21.03,21.08 45.96,37.24 74.63,48.73 28.78,11.45 60,17.17 93.51,17.17zm0 52.87c-42.11,0 -81.04,-7.19 -117.02,-21.36 -35.94,-14.05 -67.16,-33.94 -93.51,-59.89 -26.35,-25.78 -46.86,-55.83 -61.47,-90.22 -14.74,-34.39 -22.05,-72.07 -22.05,-113.16 0,-40.97 7.31,-78.64 22.05,-113 14.61,-34.27 35.12,-64.47 61.47,-90.25 26.35,-25.9 57.41,-45.85 93.1,-59.89 35.66,-14.17 74.75,-21.2 117.43,-21.2 42.14,0 80.96,7.03 116.6,21.2 35.66,14.04 66.75,33.99 93.11,59.44 26.35,25.66 46.86,55.75 61.59,90.26 14.61,34.67 21.93,72.47 21.93,113.43 0,41.1 -7.31,78.94 -21.93,113.61 -14.74,34.51 -35.24,64.72 -61.59,90.22 -26.35,25.5 -57.45,45.39 -93.11,59.44 -35.65,14.17 -74.46,21.36 -116.6,21.36z"/>
   <polygon class="fil2" points="11697.07,17995.74 11508.42,17436.41 11569.17,17436.41 11745.78,17962.93 11715.41,17962.93 11897.6,17436.41 11951.88,17436.41 12131.67,17962.93 12102.89,17962.93 12281.21,17436.41 12337.93,17436.41 12149.3,17995.74 12086.97,17995.74 11915.22,17496.25 11931.13,17496.25 11758.54,17995.74 "/>
   <path class="fil2" d="M12578.26 17686.47l295.67 0 0 50.31 -295.67 0 0 -50.31zm6.45 258.11l336.31 0 0 51.16 -395.46 0 0 -559.34 383.57 0 0 51.11 -324.42 0 0 457.07z"/>
   <path class="fil2" d="M13521.89 17995.74l-143.81 -202.98 63.9 0 144.67 202.98 -64.76 0zm-322.71 -199.84l-26.47 -27.9 175.04 0c55.99,0 98.38,-12.18 127.45,-36.83 29.07,-24.36 43.56,-58.71 43.56,-103.01 0,-44.66 -14.49,-79.33 -43.56,-103.81 -29.07,-24.49 -71.46,-36.83 -127.45,-36.83l-175.04 0 26.47 -27.93 0 336.31zm-59.15 199.84l0 -559.34 209.26 0c47.43,0 88.23,7.59 122.34,22.78 34.1,15.19 60.29,37.07 78.65,65.45 18.47,28.62 27.65,63.17 27.65,103.53 0,39.43 -9.18,73.37 -27.65,101.87 -18.35,28.5 -44.55,50.38 -78.65,65.57 -34.11,15.19 -74.91,22.78 -122.34,22.78l-176.58 0 26.47 -27.2 0 204.56 -59.15 0z"/>
   <polygon class="fil2" points="13797.63,17436.41 13856.78,17436.41 13856.78,17995.74 13797.63,17995.74 "/>
   <polygon class="fil2" points="14118.79,17995.74 14118.79,17436.41 14167.47,17436.41 14553.48,17922.24 14527.85,17922.24 14527.85,17436.41 14586.16,17436.41 14586.16,17995.74 14537.44,17995.74 14152.28,17509.89 14177.95,17509.89 14177.95,17995.74 "/>
   <path class="fil2" d="M15242.17 17922.24l0 -206.26 56.72 0 0 213.41 -56.72 -7.15zm-148.69 78.37c-42.55,0 -81.77,-7.19 -117.74,-21.36 -35.94,-14.05 -67.16,-33.94 -93.51,-59.44 -26.35,-25.5 -46.86,-55.7 -61.59,-90.22 -14.61,-34.67 -21.93,-72.51 -21.93,-113.61 0,-40.97 7.31,-78.76 21.93,-113.43 14.74,-34.51 35.37,-64.6 62.01,-90.26 26.63,-25.46 57.85,-45.4 93.83,-59.44 35.94,-14.17 75.36,-21.2 117.87,-21.2 42.72,0 81.65,6.62 117.02,19.94 35.41,13.32 65.78,33.5 90.71,60.7l-36.71 37.55c-23.46,-23.34 -49.24,-40.11 -77.46,-50.26 -28.22,-10.19 -58.59,-15.19 -91.11,-15.19 -34.64,0 -66.47,5.72 -95.54,17.18 -29.07,11.45 -54.28,27.65 -75.93,48.68 -21.48,21.07 -38.37,45.56 -50.26,73.49 -12.03,27.93 -18.03,58.71 -18.03,92.25 0,33.09 6,63.75 18.03,91.96 11.89,28.22 28.78,52.87 50.26,73.9 21.65,21.08 46.86,37.24 75.93,48.73 29.07,11.45 60.58,17.17 94.69,17.17 31.95,0 62.16,-4.7 90.67,-14.33 28.5,-9.58 54.85,-25.9 78.76,-48.68l33.54 44.67c-26.63,23.51 -57.85,41.12 -93.54,53.14 -35.65,12.06 -72.88,18.07 -111.86,18.07z"/>
   <polygon class="fil2" points="15835.01,17995.74 15835.01,17436.41 15894.16,17436.41 15894.16,17944.58 16207.29,17944.58 16207.29,17995.74 "/>
   <polygon class="fil2" points="16385.49,17436.41 16444.65,17436.41 16444.65,17995.74 16385.49,17995.74 "/>
   <polygon class="fil2" points="16859.32,17995.74 16611.65,17436.41 16675.51,17436.41 16907.15,17962.93 16872.07,17962.93 17105.37,17436.41 17165.26,17436.41 16917.59,17995.74 "/>
   <path class="fil2" d="M17378.67 17686.47l295.67 0 0 50.31 -295.67 0 0 -50.31zm6.45 258.11l336.31 0 0 51.16 -395.46 0 0 -559.34 383.45 0 0 51.11 -324.29 0 0 457.07z"/>
   <path class="fil2" d="M18094.56 18000.61c-41.54,0 -81.36,-6.91 -119.45,-20.5 -38.09,-13.61 -67.48,-30.94 -88.23,-52.25l23.06 -45.56c19.78,19.16 46.24,35.24 79.5,48.28 33.37,13.15 68.29,19.61 105.11,19.61 35.08,0 63.75,-4.42 85.79,-13.19 22.22,-8.73 38.41,-20.63 48.85,-35.53 10.31,-15.02 15.63,-31.5 15.63,-49.53 0,-21.93 -6.29,-39.54 -18.76,-52.7 -12.63,-13.32 -28.95,-23.95 -49.3,-31.67 -20.18,-7.76 -42.55,-14.46 -67.04,-20.35 -24.48,-5.88 -48.96,-12.02 -73.49,-18.76 -24.6,-6.57 -46.98,-15.62 -67.61,-26.79 -20.46,-11.17 -36.95,-25.91 -49.41,-44.26 -12.59,-18.48 -18.92,-42.55 -18.92,-72.32 0,-27.81 7.47,-53.14 22.08,-76.37 14.61,-23.18 37.07,-41.83 67.44,-55.87 30.37,-14.17 69.19,-21.2 116.74,-21.2 31.38,0 62.6,4.31 93.42,13.2 30.94,8.73 57.57,20.91 79.9,36.37l-19.89 47.15c-24.08,-16.08 -49.42,-27.82 -76.38,-35.24 -26.92,-7.48 -52.82,-11.17 -77.92,-11.17 -33.5,0 -61.3,4.56 -83.06,13.61 -21.77,9.01 -37.96,21.2 -48.4,36.38 -10.31,15.19 -15.48,32.35 -15.48,51.56 0,21.76 6.14,39.39 18.76,52.7 12.47,13.32 28.96,23.63 49.58,31.1 20.47,7.43 42.96,14.18 67.44,20.02 24.49,5.88 48.85,12.17 73.05,19.21 24.36,6.86 46.69,15.75 67.19,26.63 20.47,11.04 36.95,25.5 49.53,43.69 12.47,18.07 18.8,41.83 18.8,71.06 0,27.2 -7.47,52.3 -22.37,75.48 -15.02,23.23 -37.8,41.82 -68.33,55.87 -30.62,14.17 -69.88,21.36 -117.88,21.36z"/>
   <polygon class="fil2" points="18927.93,17995.74 18739.29,17436.41 18799.99,17436.41 18976.61,17962.93 18946.24,17962.93 19128.46,17436.41 19182.75,17436.41 19362.5,17962.93 19333.71,17962.93 19512.03,17436.41 19568.59,17436.41 19380.11,17995.74 19317.79,17995.74 19146.08,17496.25 19161.96,17496.25 18989.36,17995.74 "/>
   <polygon class="fil2" points="19756.37,17436.41 19815.53,17436.41 19815.53,17995.74 19756.37,17995.74 "/>
   <polygon class="fil2" points="20186.24,17995.74 20186.24,17487.52 19989.72,17487.52 19989.72,17436.41 20441.91,17436.41 20441.91,17487.52 20245.39,17487.52 20245.39,17995.74 "/>
   <path class="fil2" d="M21025.16 17436.41l58.46 0 0 559.34 -58.46 0 0 -559.34zm-356.37 249.38l362.13 0 0 51.85 -362.13 0 0 -51.85zm-52.54 -249.38l59 0 0 559.34 -59 0 0 -559.34z"/>
   <path class="fil2" d="M21877.73 18000.61c-42.11,0 -80.92,-7.19 -116.61,-21.36 -35.81,-14.05 -66.59,-33.94 -92.66,-59.44 -26.23,-25.5 -46.57,-55.7 -61.18,-90.22 -14.61,-34.67 -22.05,-72.51 -22.05,-113.61 0,-40.97 7.43,-78.76 22.05,-113.43 14.61,-34.51 35.24,-64.6 61.47,-90.26 26.35,-25.46 57.41,-45.4 93.1,-59.44 35.66,-14.17 74.63,-21.2 116.74,-21.2 40.4,0 78.48,6.74 114.17,20.35 35.81,13.6 65.86,33.94 90.38,61.19l-37.56 37.52c-22.9,-23.52 -48.28,-40.4 -75.88,-50.72 -27.82,-10.44 -57.62,-15.59 -89.53,-15.59 -33.53,0 -64.75,5.72 -93.54,17.18 -28.62,11.45 -53.72,27.65 -75.03,48.68 -21.36,21.07 -37.96,45.56 -50.02,73.49 -11.86,27.93 -17.91,58.71 -17.91,92.25 0,33.66 6.05,64.44 17.91,92.38 12.06,27.93 28.67,52.46 50.02,73.49 21.31,21.08 46.41,37.24 75.03,48.73 28.79,11.45 60.01,17.17 93.54,17.17 31.92,0 61.72,-5.32 89.53,-15.91 27.61,-10.72 52.98,-27.77 75.88,-51.12l37.56 37.52c-24.53,27.09 -54.57,47.72 -90.38,61.48 -35.69,13.89 -73.93,20.91 -115.02,20.91z"/>
   <path class="fil2" d="M22286.06 17846.33l17.63 -48 325.15 0 17.49 48 -360.27 0zm-100.69 149.41l255.71 -559.34 58.27 0 255.67 559.34 -62.29 0 -234.92 -524.99 23.91 0 -234.88 524.99 -61.47 0z"/>
   <path class="fil2" d="M23309.48 17995.74l-143.77 -202.98 63.87 0 144.67 202.98 -64.76 0zm-322.71 -199.84l-26.35 -27.9 174.91 0c55.99,0 98.38,-12.18 127.45,-36.83 28.95,-24.36 43.56,-58.71 43.56,-103.01 0,-44.66 -14.61,-79.33 -43.56,-103.81 -29.07,-24.49 -71.46,-36.83 -127.45,-36.83l-174.91 0 26.35 -27.93 0 336.31zm-59.16 199.84l0 -559.34 209.27 0c47.42,0 88.27,7.59 122.34,22.78 34.1,15.19 60.29,37.07 78.64,65.45 18.35,28.62 27.65,63.17 27.65,103.53 0,39.43 -9.3,73.37 -27.65,101.87 -18.35,28.5 -44.54,50.38 -78.64,65.57 -34.07,15.19 -74.92,22.78 -122.34,22.78l-176.46 0 26.35 -27.2 0 204.56 -59.16 0z"/>
   <path class="fil2" d="M23637.95 17686.47l295.63 0 0 50.31 -295.63 0 0 -50.31zm6.42 258.11l336.35 0 0 51.16 -395.5 0 0 -559.34 383.45 0 0 51.11 -324.29 0 0 457.07z"/>
   <path class="fil3" d="M5715.25 13895.19l38.69 0 15.76 793.94c32.52,-92.25 147.39,-210.85 266.55,-314.83 20.5,-37.24 42.96,-86.93 45.68,-130.9 5.03,-83.4 43.69,-188.8 43.69,-188.8l17.49 7.43c0,0 -32.97,75.8 -34.22,137.68 -0.73,42.96 -10.47,90.95 -25.95,134.64 136.95,-114.62 265.58,-202.85 265.58,-202.85l14.18 20.06c0,0 -303.96,217.71 -463.36,430.87 -159.56,213.28 -119.61,507.61 -119.61,507.61 52.7,-139.63 216,-230.29 316.25,-278.29 100.86,-47.99 143.09,-101.42 143.09,-101.42l12.75 12.75c-54,74.91 -216.13,153.84 -325.71,238.05 -108.98,83.97 -127.17,227.05 -127.17,227.05 -51.73,356.21 19.73,768.44 19.73,768.44 92.69,-171.87 374.15,-307.07 513.09,-398.18 139.06,-90.95 202.52,-315.56 202.52,-315.56l17.06 0c-9.01,51 -24.48,100.13 -45.68,146.69 99.68,-56.03 271.72,-43.97 430.14,-41.25 99.68,2.27 152.83,-36.66 152.83,-36.66l8.73 6.41c-62.73,53.6 -146.69,50.15 -254.98,46.74 -28.62,-1.02 -59.15,-1.87 -91.23,-1.75 -123.6,0.73 -225.31,52.98 -276.31,85.22 -44.37,75.64 -105.4,142.8 -183.03,196.1 79.9,3.41 154.82,15.19 265.25,45.97 80.64,22.21 454.34,-5.28 454.34,-5.28l0 17.18c0,0 -372.12,43.52 -489.3,10.31 -45.23,-12.75 -102.97,-20.79 -156.69,-25.79 -72.64,-7.15 -145.1,4.99 -212.99,32.24l-1.02 0.29c-226.28,89.65 -318.97,413.65 -318.97,413.65 -8.32,321 19.9,663.48 56.44,959.27 -32.93,-50.71 -90.22,-84.25 -155.15,-84.25 -63.01,0 -119.17,31.79 -152.66,80.23 36.22,-294.77 64.03,-635.99 55.71,-955.25 0,0 -92.66,-324 -319.26,-413.65l-0.73 -0.29c-67.89,-27.25 -140.36,-39.39 -212.83,-32.24 -53.72,4.99 -111.86,13.03 -157.13,25.79 -117.18,33.21 -488.85,-10.31 -488.85,-10.31l0 -17.18c0,0 373.7,27.49 454.18,5.28 110.15,-30.78 185.06,-42.55 265.29,-45.97 -77.63,-53.31 -138.65,-120.47 -183.36,-196.1 -51,-32.24 -152.42,-84.49 -276.3,-85.22 -32.24,-0.12 -62.61,0.73 -91.24,1.75 -108.45,3.41 -192.25,6.86 -254.54,-46.74l8.73 -6.41c0,0 52.98,38.94 152.71,36.66 158.1,-2.72 330.42,-14.78 429.86,41.25 -21.23,-46.57 -36.42,-95.69 -45.72,-146.69l17.06 0c0,0 63.46,224.61 202.81,315.56 138.65,91.11 420.39,226.32 513.09,398.18 0,0 71.17,-412.23 19.77,-768.44 0,0 -18.06,-143.08 -127.65,-227.05 -109.42,-84.21 -271.55,-163.14 -325.55,-238.05l13.03 -12.75c0,0 42.23,53.43 142.64,101.42 100.41,48 264,138.66 316.7,278.29 0,0 39.99,-294.33 -119.58,-507.61 -159.85,-213.16 -463.68,-430.87 -463.68,-430.87l14.49 -20.06c0,0 128.18,88.23 265.25,202.85 -15.47,-43.7 -25.21,-91.68 -25.95,-134.64 -1.26,-61.87 -33.78,-137.68 -33.78,-137.68l17.06 -7.43c0,0 38.65,105.4 43.69,188.8 2.72,43.98 25.21,93.67 45.96,130.9 118.89,103.98 234.08,222.59 266.55,314.83l15.76 -793.94z"/>
   <path class="fil2" d="M5431.36 15177.7c36.95,38.12 28.1,78.81 15.34,104.88l-27.93 4.7 -117.31 -96.55 103.54 111.16 -3.01 28.22c-25.21,14.33 -65.32,25.79 -105.56,-8.89 -66.31,-56.84 -29.52,-162.85 -29.52,-162.85 0,0 103.58,-43.41 164.44,19.33z"/>
   <path class="fil2" d="M5433.39 13882.73c-2.44,52.98 -38.13,74.35 -65.78,82.91l-22.61 -17.06 -10.31 -151.53 -9.74 151.53 -22.61 17.21c-27.82,-8.44 -63.63,-29.8 -66.06,-82.79 -4.14,-87.25 98.29,-133.21 98.29,-133.21 0,0 102.52,45.56 98.83,132.93z"/>
   <path class="fil2" d="M5614.27 14159.43c-21.88,48.28 -63.02,54.86 -91.96,52.42l-14.58 -24.2 47.1 -144.5 -65.74 137.07 -27.36 7.43c-22.62,-18.31 -47.83,-51.4 -30.37,-101.38 28.78,-82.67 140.97,-86.97 140.97,-86.97 0,0 78.2,80.64 41.94,160.13z"/>
   <path class="fil2" d="M5915.38 13689.78c-4.46,97.25 -69.91,136.5 -120.75,152.38 -19.49,6.01 -38.98,-9.01 -41.54,-31.35l-19.05 -278.45 -17.9 278.57c-2.44,22.37 -21.93,37.39 -41.42,31.5 -50.99,-15.59 -116.73,-54.69 -121.32,-152.09 -7.59,-160.3 180.48,-244.67 180.48,-244.67 0,0 188.52,83.69 181.49,244.1z"/>
   <path class="fil2" d="M4832.52 14662.61c21.76,37.85 6.42,68.33 -8.89,86.69l-23.23 -1.87 -74.18 -100.57 60.29 109.46 -8 21.89c-23.07,6.29 -57.29,7.47 -82.5,-28.22 -41.54,-58.71 9.13,-135.94 9.13,-135.94 0,0 91.39,-13.72 127.37,48.56z"/>
   <path class="fil2" d="M4701.45 14224.48c47.1,49.53 35.24,101.83 18.48,135.36l-36.09 5.73 -150.11 -125.91 132.2 144.67 -4.14 36.22c-32.8,18.19 -84.53,32.52 -136.1,-12.59 -84.78,-74.18 -35.94,-210.4 -35.94,-210.4 0,0 134.07,-54.73 211.7,26.92z"/>
   <path class="fil2" d="M4632.96 15855.92c30.37,-31.35 64.03,-25.05 85.83,-15.19l4.59 22.78 -76.38 98.99 88.8 -88.11 23.22 1.87c12.46,20.35 22.9,52.99 -4.42,86.97 -45.14,55.99 -133.21,28.34 -133.21,28.34 0,0 -38.41,-83.92 11.57,-135.65z"/>
   <path class="fil2" d="M3967.37 15418.91c43.69,1.99 61.15,31.39 68.17,54.17l-14.04 18.59 -124.73 8.33 124.73 8.15 14.2 18.6c-7.18,22.78 -24.64,52.3 -68.33,54.28 -71.78,3.17 -109.42,-81.04 -109.42,-81.04 0,0 37.64,-84.37 109.42,-81.09z"/>
   <path class="fil2" d="M4060.18 14762.74c34.67,26.64 32.07,60.74 24.93,83.52l-22.21 7.15 -106.99 -64.72 97.53 78.2 0.85 23.35c-18.88,14.61 -50.1,28.66 -86.93,5.32 -60.74,-38.41 -43.25,-129.08 -43.25,-129.08 0,0 79.18,-47.55 136.06,-3.74z"/>
   <path class="fil2" d="M4467.09 14618.36c50.59,71.49 25.67,135.36 -1.7,174.62 -10.31,15.03 -32.52,15.03 -46.69,0.69l-166.87 -187.05 140.8 207.39c10.44,17.22 4.99,38.7 -12.02,45.11 -44.86,17.22 -112.87,25.67 -169.88,-40.8 -93.7,-109.59 -6.73,-273.14 -6.73,-273.14 0,0 179.74,-44.42 263.1,73.17z"/>
   <path class="fil2" d="M4319.42 15550.55c74.06,6.29 102,57.57 112.59,96.84 4.02,14.9 -8.16,29.35 -25.22,30.65l-212.99 6.01 211.86 22.21c17.06,2.55 27.93,17.91 22.78,32.52 -13.48,38.37 -45.28,87.34 -119.61,87.94 -122.62,0.85 -181.21,-145.27 -181.21,-145.27 0,0 69.63,-141.22 191.8,-130.9z"/>
   <path class="fil2" d="M5007.27 15039.2c21.2,71.62 -16.36,116.45 -49.29,140.65 -12.46,9.17 -30.37,3.17 -37.96,-12.31l-83.35 -196.8 56.72 206.1c3.85,16.77 -6.46,32.64 -22.05,33.25 -40.85,1.42 -98.14,-10.31 -125.91,-79.66 -45.72,-114.18 69.31,-222.46 69.31,-222.46 0,0 157.41,13.48 192.53,131.23z"/>
   <path class="fil2" d="M5271.67 14497.77c48.28,76.61 19.21,141.21 -11.17,180.31 -11.61,14.9 -34.55,13.76 -48.28,-1.87l-162.16 -202.08 134.06 221.73c9.91,18.31 3.17,40.11 -14.74,45.96 -47.26,15.19 -118.03,20.22 -173.17,-51.56 -90.82,-118.16 7.72,-282.19 7.72,-282.19 0,0 188.07,-36.22 267.73,89.69z"/>
   <path class="fil2" d="M5074.87 13911.92c69.19,58.3 61.15,128.79 43.97,175.2 -6.62,17.63 -28.66,23.63 -46.57,12.88l-215.72 -143.53 194.97 170.77c15.03,14.46 15.03,37.36 -0.28,48.24 -40.28,28.78 -106.3,55.01 -180.48,3.33 -122.49,-85.1 -78.24,-271.3 -78.24,-271.3 0,0 168.33,-91.4 282.34,4.42z"/>
   <path class="fil2" d="M5016.4 15899.89c47.58,-76.9 118.48,-79.05 166.87,-68.9 18.48,3.9 27.53,24.93 19.5,44.29l-110.56 234.16 140.49 -217.55c12.17,-17.06 34.83,-20.5 47.87,-6.9 34.23,35.8 69.88,97.12 29.48,178.2 -66.3,133.5 -257.09,116.61 -257.09,116.61 0,0 -114.87,-153.15 -36.54,-279.91z"/>
   <path class="fil2" d="M4341.35 15050.24c75.64,70.44 62.32,150.39 40.11,202.36 -8.44,19.93 -34.1,25.21 -53.88,12.06l-237.89 -176.21 212.67 205.97c16.2,17.5 15.06,43.57 -3,55.19 -47.66,30.49 -124.44,56.71 -206.38,-6.46 -134.63,-104.15 -73.49,-314.14 -73.49,-314.14 0,0 197.08,-94.64 321.85,21.23z"/>
   <path class="fil2" d="M6037.26 15177.7c-36.82,38.12 -27.93,78.81 -15.19,104.88l27.94 4.7 117.3 -96.55 -103.58 111.16 3.05 28.22c25.17,14.33 65.29,25.79 105.57,-8.89 66.3,-56.84 29.35,-162.85 29.35,-162.85 0,0 -103.58,-43.41 -164.44,19.33z"/>
   <path class="fil2" d="M6035.4 13882.73c2.43,52.98 38.08,74.35 65.73,82.91l22.66 -17.06 10.31 -151.53 9.71 151.53 22.66 17.21c27.77,-8.44 63.46,-29.8 66.02,-82.79 4.14,-87.25 -98.26,-133.21 -98.26,-133.21 0,0 -102.68,45.56 -98.82,132.93z"/>
   <path class="fil2" d="M5854.35 14159.43c22.05,48.28 63.18,54.86 92.09,52.42l14.61 -24.2 -47.14 -144.5 65.77 137.07 27.33 7.43c22.5,-18.31 47.87,-51.4 30.37,-101.38 -28.78,-82.67 -141.09,-86.97 -141.09,-86.97 0,0 -78.03,80.64 -41.94,160.13z"/>
   <path class="fil2" d="M6636.27 14662.61c-21.77,37.85 -6.58,68.33 8.89,86.69l23.18 -1.87 74.22 -100.57 -60.34 109.46 8.04 21.89c23.06,6.29 57.29,7.47 82.5,-28.22 41.54,-58.71 -9.17,-135.94 -9.17,-135.94 0,0 -91.4,-13.72 -127.33,48.56z"/>
   <path class="fil2" d="M6767.18 14224.48c-47.1,49.53 -35.08,101.83 -18.31,135.36l36.09 5.73 150.11 -125.91 -132.2 144.67 4.13 36.22c32.81,18.19 84.49,32.52 136.06,-12.59 84.82,-74.18 35.97,-210.4 35.97,-210.4 0,0 -134.07,-54.73 -211.86,26.92z"/>
   <path class="fil2" d="M6835.79 15855.92c-30.37,-31.35 -64.03,-25.05 -85.79,-15.19l-4.59 22.78 76.33 98.99 -88.8 -88.11 -23.18 1.87c-12.46,20.35 -22.94,52.99 4.42,86.97 45.11,55.99 133.22,28.34 133.22,28.34 0,0 38.37,-83.92 -11.61,-135.65z"/>
   <path class="fil2" d="M7501.26 15418.91c-43.52,1.99 -61.02,31.39 -68.17,54.17l14.17 18.59 124.61 8.33 -124.61 8.15 -14.17 18.6c7.02,22.78 24.65,52.3 68.17,54.28 71.91,3.17 109.59,-81.04 109.59,-81.04 0,0 -37.68,-84.37 -109.59,-81.09z"/>
   <path class="fil2" d="M7408.44 14762.74c-34.51,26.64 -32.07,60.74 -24.76,83.52l22.21 7.15 106.98 -64.72 -97.52 78.2 -0.9 23.35c18.92,14.61 50.15,28.66 86.97,5.32 60.74,-38.41 43.24,-129.08 43.24,-129.08 0,0 -79.21,-47.55 -136.22,-3.74z"/>
   <path class="fil2" d="M7001.66 14618.36c-50.55,71.49 -25.79,135.36 1.74,174.62 10.31,15.03 32.49,15.03 46.7,0.69l166.72 -187.05 -140.65 207.39c-10.59,17.22 -5.03,38.7 12.03,45.11 44.7,17.22 112.87,25.67 169.75,-40.8 93.79,-109.59 6.86,-273.14 6.86,-273.14 0,0 -179.75,-44.42 -263.14,73.17z"/>
   <path class="fil2" d="M7149.33 15550.55c-74.02,6.29 -101.95,57.57 -112.55,96.84 -4.02,14.9 8.15,29.35 25.21,30.65l212.84 6.01 -211.87 22.21c-16.89,2.55 -27.77,17.91 -22.78,32.52 13.61,38.37 45.28,87.34 119.78,87.94 122.45,0.85 181.04,-145.27 181.04,-145.27 0,0 -69.47,-141.22 -191.68,-130.9z"/>
   <path class="fil2" d="M6461.52 15039.2c-21.19,71.62 16.33,116.45 49.3,140.65 12.46,9.17 30.37,3.17 37.8,-12.31l83.52 -196.8 -56.88 206.1c-3.74,16.77 6.57,32.64 22.21,33.25 40.8,1.42 98.09,-10.31 125.91,-79.66 45.67,-114.18 -69.48,-222.46 -69.48,-222.46 0,0 -157.29,13.48 -192.37,131.23z"/>
   <path class="fil2" d="M6197.12 14497.77c-48.27,76.61 -19.21,141.21 11.17,180.31 11.61,14.9 34.51,13.76 48.28,-1.87l162.12 -202.08 -134.06 221.73c-10.03,18.31 -3.13,40.11 14.77,45.96 47.26,15.19 118.03,20.22 173.17,-51.56 90.79,-118.16 -7.75,-282.19 -7.75,-282.19 0,0 -188.07,-36.22 -267.69,89.69z"/>
   <path class="fil2" d="M6393.92 13911.92c-69.19,58.3 -61.15,128.79 -43.98,175.2 6.46,17.63 28.67,23.63 46.53,12.88l215.72 -143.53 -194.94 170.77c-15.02,14.46 -15.19,37.36 0.17,48.24 40.36,28.78 106.42,55.01 180.59,3.33 122.46,-85.1 78.08,-271.3 78.08,-271.3 0,0 -168.17,-91.4 -282.18,4.42z"/>
   <path class="fil2" d="M6452.35 15899.89c-47.67,-76.9 -118.6,-79.05 -166.87,-68.9 -18.48,3.9 -27.49,24.93 -19.45,44.29l110.56 234.16 -140.52 -217.55c-12.14,-17.06 -34.79,-20.5 -47.83,-6.9 -34.39,35.8 -69.87,97.12 -29.51,178.2 66.34,133.5 257.13,116.61 257.13,116.61 0,0 114.87,-153.15 36.51,-279.91z"/>
   <path class="fil2" d="M7127.44 15050.24c-75.65,70.44 -62.33,150.39 -40.11,202.36 8.44,19.93 34.1,25.21 53.83,12.06l237.93 -176.21 -212.71 205.97c-16.33,17.5 -15.03,43.57 3,55.19 47.71,30.49 124.49,56.71 206.26,-6.46 134.8,-104.15 73.65,-314.14 73.65,-314.14 0,0 -197.24,-94.64 -321.85,21.23z"/>
   <path class="fil1" d="M4391.61 16944.22c0,68.33 -55.42,123.63 -123.59,123.63 -68.33,0 -123.76,-55.3 -123.76,-123.63 0,-68.29 55.42,-123.59 123.76,-123.59 68.17,0 123.59,55.3 123.59,123.59z"/>
   <path class="fil1" d="M4472.7 17198.91c-65.74,-96.71 -177.31,-139.22 -284.63,-100.29 -52.41,19.05 -96.96,59.04 -130.61,108.74 -81.94,121.15 -184.05,288.59 -150.28,328.88 26.07,31.06 145.85,-117.34 179.22,-160.02l8.57 4.14c2.03,96.71 14.61,576.84 70.49,614.64l4.99 -0.4c7.3,-7.02 27.81,-40.56 33.54,-200.25 0.56,-16.33 4.13,-32.52 11.45,-47.15 9.87,-19.61 26.92,-42.39 52.58,-42.39 24.93,0 41.82,21.65 51.69,40.97 7.87,15.3 11.77,32.52 12.34,49.69 5.56,157.87 25.9,191.64 33.21,198.96l5.32 0.56c55.71,-37.8 68.3,-517.92 70.33,-614.64l8.57 -4.14c33.54,42.68 159.85,155.72 185.92,124.78 34.67,-41.26 -79.91,-180.36 -162.7,-302.09z"/>
   <path class="fil1" d="M5128.71 16846.13c0,70.61 -57.28,127.89 -127.89,127.89 -70.61,0 -127.78,-57.28 -127.78,-127.89 0,-70.61 57.17,-127.78 127.78,-127.78 70.61,0 127.89,57.17 127.89,127.78z"/>
   <path class="fil1" d="M5212.52 17142.2c-68.05,-103.58 -183.36,-149.13 -294.2,-107.32 -54.29,20.34 -100.29,63.17 -135.09,116.32 -84.78,129.93 -190.34,309.11 -155.26,352.35 26.92,33.26 150.68,-125.62 185.18,-171.3l8.89 4.3c2.16,103.53 15.19,617.93 72.76,658.45l5.32 -0.56c7.43,-7.43 28.79,-43.25 34.51,-214.42 0.57,-17.46 4.3,-34.79 11.89,-50.43 10.31,-21.03 27.77,-45.56 54.29,-45.56 25.9,0 43.24,23.35 53.55,43.98 8.16,16.32 12.06,34.83 12.75,53.14 5.89,169.16 26.8,205.41 34.39,213.29l5.44 0.56c57.57,-40.68 70.61,-554.91 72.76,-658.45l8.89 -4.3c34.51,45.68 165.14,214.7 192.05,181.49 35.81,-44.26 -82.5,-241.05 -168.13,-371.54z"/>
   <path class="fil1" d="M5835.02 17165.38c0,55.87 -45.43,101.26 -101.3,101.26 -55.83,0 -101.09,-45.39 -101.09,-101.26 0,-55.87 45.27,-101.27 101.09,-101.27 55.87,0 101.3,45.4 101.3,101.27z"/>
   <path class="fil1" d="M6594.45 16908.7c0,70.64 -57.16,127.77 -127.77,127.77 -70.61,0 -127.9,-57.13 -127.9,-127.77 0,-70.61 57.29,-127.9 127.9,-127.9 70.61,0 127.77,57.29 127.77,127.9z"/>
   <path class="fil1" d="M6678.38 17171.96c-68.05,-99.96 -183.49,-143.94 -294.21,-103.7 -54.4,19.78 -100.41,61.03 -135.08,112.31 -84.78,125.46 -190.5,298.38 -155.38,340.21 26.92,32.07 150.68,-121.33 185.18,-165.46l8.89 4.14c2.15,100 15.19,596.45 72.93,635.54l5.15 -0.4c7.59,-7.3 28.79,-41.98 34.51,-206.99 0.69,-16.89 4.42,-33.66 12.02,-48.85 10.19,-20.34 27.77,-43.84 54.29,-43.84 25.78,0 43.24,22.49 53.55,42.42 8.2,15.76 12.06,33.5 12.62,51.4 5.89,163.14 26.8,198.1 34.39,205.7l5.44 0.56c57.57,-39.25 70.61,-535.54 72.76,-635.54l8.86 -4.14c34.55,44.13 158.31,197.53 185.34,165.46 35.81,-42.72 -75.76,-223.03 -161.26,-348.82z"/>
   <path class="fil1" d="M7233.57 17053.52c0,61.15 -49.58,110.89 -110.72,110.89 -61.19,0 -110.89,-49.74 -110.89,-110.89 0,-61.15 49.7,-110.72 110.89,-110.72 61.15,0 110.72,49.58 110.72,110.72z"/>
   <path class="fil1" d="M7268.09 17245.61c-50.72,-56.6 -126.93,-80.07 -199.53,-58.59 -36.37,10.72 -68.9,33.79 -95.54,63.74 -70.2,78.77 -196.1,209.67 -146.4,269.44 20.34,24.2 127.37,-125.91 156.44,-157.3l6.42 3.01c-4.84,73.04 -35.49,575.37 21.23,628.8l5.57 -0.73c8.32,-10.16 32.35,-57.13 44.99,-255.51 1.13,-18.19 5.15,-35.97 12.46,-51.57 9.59,-20.62 25.78,-43.97 49.13,-43.97 22.78,0 38.65,22.21 48.4,42.55 7.87,16.32 12.05,35.08 13.32,54.28 12.46,196.07 36.25,243.62 44.71,254.09l5.72 0.85c56.72,-53.55 26.06,-555.76 21.19,-628.8l6.29 -3.01c29.24,31.39 143.81,151.13 161.03,124.49 21.89,-34.1 -85.1,-163.3 -155.42,-241.78z"/>
   <path class="fil1" d="M5908.2 17587.93l-4.14 0 -22.78 -20.18 0 -17.62 22.78 -20.35 22.9 -20.22 0 -184.46 -22.9 -20.22 -341.06 0 -22.9 20.22 0 184.46 22.9 20.22 22.78 20.35 0 17.62 -22.78 20.18 -4.14 0 -22.33 16.33 -31.95 141.54c-2.89,12.46 8.03,24.03 22.49,24.03l412.92 0c14.5,0 25.38,-11.57 22.5,-24.03l-31.92 -141.54 -22.37 -16.33z"/>
   <polygon class="fil1" points="5504.57,17748.92 5962.92,17748.92 5962.92,17813.68 5504.57,17813.68 "/>
   <path class="fil1" d="M5488.65 17610.87l-22.89 0c-4.14,0 -7.59,86.07 -7.59,192.33 0,106.3 3.45,192.54 7.59,192.54l22.89 0c4.19,0 7.59,-86.24 7.59,-192.54 0,-106.25 -3.41,-192.33 -7.59,-192.33z"/>
   <path class="fil1" d="M6001.74 17610.87l-22.94 0c-4.14,0 -7.56,86.07 -7.56,192.33 0,106.3 3.41,192.54 7.56,192.54l22.94 0c4.14,0 7.59,-86.24 7.59,-192.54 0,-106.25 -3.45,-192.33 -7.59,-192.33z"/>
   <path class="fil1" d="M5873.11 17383.7c-36.37,-43.57 -86.65,-68.5 -139.39,-68.21l0 463.23c18.64,0 31.39,16.04 38.7,30.53l9.17 36.95c4.14,117.87 19.49,143.08 24.93,148.52l3.86 0.45c41.54,-28.38 50.99,-386.62 52.41,-458.65l1.42 -21.07c69.63,9.01 238.05,27.93 243.65,-0.86 7.03,-36.37 -234.76,-130.89 -234.76,-130.89z"/>
   <path class="fil1" d="M5594.09 17383.7c0,0 -241.78,94.52 -234.76,130.89 5.72,28.79 174.02,9.87 243.65,0.86l1.42 21.07c1.42,72.03 10.88,430.27 52.42,458.65l4.02 -0.45c5.43,-5.44 20.62,-30.65 24.76,-148.52l9.18 -36.95c7.43,-14.49 20.06,-30.53 38.65,-30.53l0 -463.23c-52.53,-0.29 -102.96,24.64 -139.35,68.21z"/>
  </g>
 </g>
</svg>
