<?xml version="1.0" encoding="UTF-8"?>
<svg id="Layer_1" data-name="Layer 1" xmlns="http://www.w3.org/2000/svg" viewBox="0 0 6552.78 1256.43">
  <defs>
    <style>
      .cls-1 {
        fill: #354066;
      }

      .cls-2 {
        fill: #95683b;
      }

      .cls-3 {
        fill: #567c39;
      }
    </style>
  </defs>
  <path class="cls-1" d="M1547.08,919c-28.96,0-55.81-4.79-80.57-14.35-24.8-9.62-46.32-23.19-64.59-40.7-18.27-17.57-32.48-38.29-42.6-62.18-10.12-23.85-15.18-49.91-15.18-78.11s5.06-54.27,15.18-78.16c10.12-23.89,24.41-44.58,42.87-62.14,18.43-17.57,39.96-31.13,64.56-40.71,24.6-9.57,51.57-14.4,80.88-14.4,31.09,0,59.49,5.35,85.2,16.02,25.66,10.68,47.38,26.5,65.11,47.46l-45.56,42.88c-13.77-14.8-29.12-25.95-46.13-33.34-17.01-7.45-35.47-11.16-55.38-11.16s-38.08,3.29-54.53,9.77c-16.46,6.53-30.74,15.74-42.88,27.69-12.1,11.94-21.51,26.06-28.2,42.31-6.73,16.3-10.05,34.22-10.05,53.76s3.32,37.41,10.05,53.71c6.68,16.3,16.1,30.38,28.2,42.32,12.14,11.94,26.43,21.16,42.88,27.68,16.45,6.54,34.64,9.78,54.53,9.78s38.37-3.72,55.38-11.11c17.01-7.45,32.35-18.76,46.13-33.94l45.56,43.42c-17.73,20.61-39.44,36.35-65.11,47.19-25.71,10.88-54.27,16.29-85.74,16.29h0Z"/>
  <path class="cls-1" d="M1796.18,825.66l18.98-55.34h205.16l18.98,55.34h-243.12ZM1717.47,913.59l170.94-379.9h69.5l171.46,379.9h-73.81l-147.05-342.45h28.2l-146.5,342.45h-72.74Z"/>
  <path class="cls-1" d="M2439.81,913.59l-96.07-137.83h75.43l96.59,137.83h-75.95ZM2261.79,778.44l-31.48-33.62h113.99c31.08,0,54.53-6.68,70.27-20.09,15.71-13.38,23.58-32,23.58-55.89s-7.87-42.87-23.58-55.89c-15.74-13.05-39.19-19.53-70.27-19.53h-113.99l31.48-34.73v219.76h0ZM2191.23,913.59v-379.9h156.31c33.66,0,62.49,5.42,86.54,16.29,24.08,10.88,42.64,26.43,55.64,46.67,13.02,20.25,19.54,44.34,19.54,72.18s-6.53,51.81-19.54,71.91c-13.01,20.04-31.56,35.43-55.64,46.11-24.05,10.67-52.88,16.02-86.54,16.02h-117.23l31.48-32v142.7h-70.57Z"/>
  <path class="cls-1" d="M2666.65,691.62h188.86v58.07h-188.86v-58.07ZM2672.06,854.41h214.38v59.18h-284.93v-379.9h277.34v59.16h-206.79v261.56h0Z"/>
  <path class="cls-1" d="M3166.98,825.66l18.99-55.34h205.15l18.99,55.34h-243.14ZM3088.32,913.59l170.95-379.9h69.44l171.5,379.9h-73.81l-147.1-342.45h28.24l-146.54,342.45h-72.7Z"/>
  <polygon class="cls-1" points="3620.13 913.59 3620.13 593.41 3494.23 593.41 3494.23 533.69 3816.59 533.69 3816.59 593.41 3690.7 593.41 3690.7 913.59 3620.13 913.59"/>
  <polygon class="cls-1" points="4046.67 913.59 4046.67 533.69 4104.72 533.69 4342.99 826.21 4314.23 826.21 4314.23 533.69 4384.24 533.69 4384.24 913.59 4326.17 913.59 4087.91 621.06 4116.67 621.06 4116.67 913.59 4046.67 913.59"/>
  <path class="cls-1" d="M4767.9,913.59v-50.46l-8.67-8.15v-135.66h66.72v194.28h-58.05ZM4665.9,919c-26.07,0-50.67-4.15-73.8-12.5-23.19-8.3-43.7-20.69-61.59-37.13-17.92-16.46-32.03-36.66-42.36-60.52-10.28-23.88-15.47-51.37-15.47-82.51,0-29.31,5.07-55.96,15.19-80.05,10.12-24.05,24.52-44.93,43.15-62.65,18.62-17.71,40.42-31.4,65.37-40.98,25-9.57,52.29-14.4,81.96-14.4,32.19,0,61.23,5.27,87.09,15.74,25.87,10.48,47.69,25.87,65.42,46.12l-44.5,43.42c-14.83-14.83-30.84-25.79-48.05-32.83-17.16-7.04-36.07-10.6-56.68-10.6s-38.36,3.29-55.37,9.77c-17.01,6.53-31.64,15.74-43.95,27.69-12.3,11.94-21.78,26.23-28.48,42.88-6.72,16.65-10.08,35.08-10.08,55.33,0,21.75,3.44,40.82,10.32,57.27,6.87,16.46,16.37,30.31,28.51,41.53,12.11,11.2,25.87,19.74,41.26,25.52,15.34,5.77,31.56,8.66,48.53,8.66,19.9,0,39.27-4.07,58.07-12.18,18.82-8.15,34.56-20.73,47.22-37.74l29.87,37.46c-12.66,24.6-31.49,42.84-56.45,54.78-24.96,11.95-53.39,17.92-85.18,17.92h0Z"/>
  <path class="cls-1" d="M5095.66,919c-52.09,0-92.87-14.63-122.37-43.94-29.46-29.31-44.22-71.63-44.22-127.01v-214.37h70.57v211.64c0,39.08,8.39,67.52,25.24,85.23,16.81,17.72,40.57,26.58,71.35,26.58s54.42-8.86,71.07-26.58c16.65-17.71,25-46.16,25-85.23v-211.64h69.46v214.37c0,55.38-14.75,97.7-44.26,127.01-29.46,29.31-70.09,43.94-121.83,43.94h0Z"/>
  <path class="cls-1" d="M5622.62,913.59l-96.07-137.83h75.47l96.59,137.83h-75.98ZM5444.64,778.44l-31.48-33.62h113.94c31.13,0,54.54-6.68,70.29-20.09,15.74-13.38,23.61-32,23.61-55.89s-7.87-42.87-23.61-55.89c-15.74-13.05-39.15-19.53-70.29-19.53h-113.94l31.48-34.73v219.76h0ZM5374.07,913.59v-379.9h156.31c33.62,0,62.46,5.42,86.54,16.29,24.05,10.88,42.59,26.43,55.61,46.67,13.05,20.25,19.54,44.34,19.54,72.18s-6.49,51.81-19.54,71.91c-13.02,20.04-31.56,35.43-55.61,46.11-24.08,10.67-52.92,16.02-86.54,16.02h-117.23l31.48-32v142.7h-70.57,0Z"/>
  <path class="cls-1" d="M6032.9,913.59l-96.07-137.83h75.47l96.58,137.83h-75.97ZM5854.92,778.44l-31.48-33.62h113.94c31.12,0,54.54-6.68,70.29-20.09,15.74-13.38,23.61-32,23.61-55.89s-7.87-42.87-23.61-55.89c-15.74-13.05-39.16-19.53-70.29-19.53h-113.94l31.48-34.73v219.76h0ZM5784.35,913.59v-379.9h156.27c33.66,0,62.49,5.42,86.59,16.29,24.05,10.88,42.59,26.43,55.61,46.67,13.05,20.25,19.53,44.34,19.53,72.18s-6.48,51.81-19.53,71.91c-13.02,20.04-31.56,35.43-55.61,46.11-24.09,10.67-52.93,16.02-86.59,16.02h-117.19l31.48-32v142.7h-70.57,0Z"/>
  <path class="cls-1" d="M6219.59,825.66l18.98-55.34h205.12l18.98,55.34h-243.08ZM6140.87,913.59l170.95-379.9h69.44l171.51,379.9h-73.8l-147.06-342.45h28.2l-146.5,342.45h-72.74,0Z"/>
  <path class="cls-2" d="M512.86,124.13h10.68l4.35,219.23c8.98-25.47,40.7-58.22,73.6-86.94,5.66-10.28,11.86-24,12.61-36.15,1.39-23.03,12.06-52.13,12.06-52.13l4.83,2.05s-9.1,20.93-9.45,38.02c-.2,11.86-2.89,25.11-7.17,37.18,37.82-31.65,73.34-56.01,73.34-56.01l3.92,5.54s-83.93,60.12-127.95,118.98c-44.06,58.89-33.03,140.17-33.03,140.17,14.55-38.56,59.64-63.59,87.33-76.85,27.85-13.25,39.51-28.01,39.51-28.01l3.52,3.52c-14.91,20.69-59.68,42.48-89.94,65.73-30.09,23.19-35.12,62.7-35.12,62.7-14.28,98.36,5.45,212.19,5.45,212.19,25.59-47.46,103.32-84.79,141.68-109.95,38.4-25.11,55.92-87.14,55.92-87.14h4.71c-2.49,14.08-6.76,27.65-12.61,40.51,27.53-15.47,75.03-12.14,118.78-11.39,27.53.63,42.2-10.12,42.2-10.12l2.41,1.77c-17.32,14.8-40.51,13.85-70.41,12.91-7.9-.28-16.33-.52-25.19-.48-34.13.2-62.22,14.63-76.3,23.53-12.25,20.89-29.1,39.43-50.54,54.15,22.06.94,42.75,4.19,73.24,12.69,22.27,6.13,125.46-1.46,125.46-1.46v4.74s-102.75,12.02-135.11,2.85c-12.49-3.52-28.43-5.74-43.27-7.12-20.06-1.97-40.07,1.38-58.81,8.9l-.28.08c-62.48,24.76-88.08,114.22-88.08,114.22-2.3,88.64,5.5,183.21,15.58,264.89-9.09-14-24.91-23.26-42.84-23.26s-32.91,8.78-42.15,22.15c10-81.4,17.68-175.62,15.38-263.78,0,0-25.59-89.47-88.16-114.22l-.2-.08c-18.75-7.52-38.76-10.88-58.77-8.9-14.83,1.38-30.89,3.6-43.39,7.12-32.36,9.17-134.99-2.85-134.99-2.85v-4.74s103.19,7.59,125.41,1.46c30.42-8.5,51.1-11.75,73.26-12.69-21.44-14.72-38.29-33.27-50.63-54.15-14.08-8.9-42.09-23.33-76.3-23.53-8.9-.03-17.29.2-25.19.48-29.95.94-53.09,1.89-70.29-12.91l2.41-1.77s14.63,10.75,42.17,10.12c43.66-.75,91.24-4.08,118.7,11.39-5.86-12.86-10.06-26.42-12.62-40.51h4.71s17.52,62.02,56,87.14c38.29,25.16,116.08,62.49,141.68,109.95,0,0,19.65-113.83,5.46-212.19,0,0-4.99-39.51-35.25-62.7-30.21-23.25-74.98-45.05-89.9-65.73l3.6-3.52s11.66,14.75,39.39,28.01c27.73,13.25,72.9,38.29,87.45,76.85,0,0,11.04-81.27-33.02-140.17-44.14-58.86-128.04-118.98-128.04-118.98l4-5.54s35.39,24.36,73.24,56.01c-4.27-12.07-6.96-25.32-7.17-37.18-.35-17.08-9.33-38.02-9.33-38.02l4.71-2.05s10.67,29.1,12.06,52.13c.75,12.14,6.96,25.87,12.69,36.15,32.83,28.71,64.64,61.46,73.6,86.94l4.35-219.23h0Z"/>
  <path class="cls-3" d="M434.47,478.27c10.2,10.53,7.76,21.76,4.24,28.96l-7.71,1.3-32.39-26.66,28.59,30.7-.83,7.79c-6.96,3.96-18.04,7.12-29.15-2.45-18.31-15.7-8.15-44.97-8.15-44.97,0,0,28.6-11.99,45.41,5.34h0Z"/>
  <path class="cls-3" d="M435.03,120.69c-.67,14.63-10.53,20.53-18.16,22.89l-6.24-4.71-2.85-41.84-2.69,41.84-6.24,4.75c-7.68-2.33-17.57-8.23-18.24-22.86-1.14-24.09,27.14-36.78,27.14-36.78,0,0,28.31,12.58,27.29,36.71h0Z"/>
  <path class="cls-3" d="M484.98,197.09c-6.04,13.33-17.4,15.15-25.39,14.47l-4.03-6.68,13.01-39.9-18.15,37.85-7.55,2.05c-6.25-5.06-13.21-14.19-8.39-27.99,7.95-22.83,38.93-24.02,38.93-24.02,0,0,21.59,22.27,11.58,44.22Z"/>
  <path class="cls-3" d="M568.13,67.41c-1.23,26.85-19.3,37.69-33.34,42.08-5.38,1.66-10.76-2.49-11.47-8.66l-5.26-76.89-4.94,76.92c-.67,6.18-6.06,10.32-11.44,8.7-14.08-4.3-32.23-15.1-33.5-42-2.1-44.26,49.84-67.56,49.84-67.56,0,0,52.06,23.11,50.12,67.4h0Z"/>
  <path class="cls-3" d="M269.11,336.04c6.01,10.45,1.77,18.87-2.45,23.94l-6.41-.52-20.48-27.77,16.65,30.23-2.21,6.04c-6.37,1.74-15.82,2.06-22.78-7.79-11.47-16.21,2.52-37.54,2.52-37.54,0,0,25.24-3.79,35.17,13.41h0Z"/>
  <path class="cls-3" d="M232.92,215.06c13.01,13.68,9.73,28.12,5.1,37.38l-9.97,1.58-41.45-34.77,36.5,39.95-1.14,10c-9.06,5.02-23.34,8.98-37.58-3.48-23.41-20.48-9.92-58.1-9.92-58.1,0,0,37.02-15.11,58.46,7.43h0Z"/>
  <path class="cls-3" d="M214.01,665.55c8.39-8.66,17.68-6.92,23.7-4.19l1.27,6.29-21.09,27.33,24.52-24.33,6.41.52c3.44,5.62,6.32,14.63-1.22,24.02-12.46,15.46-36.78,7.83-36.78,7.83,0,0-10.61-23.17,3.19-37.46h0Z"/>
  <path class="cls-3" d="M30.21,544.88c12.06.55,16.89,8.67,18.82,14.96l-3.88,5.13-34.44,2.3,34.44,2.25,3.92,5.14c-1.98,6.29-6.8,14.44-18.87,14.99-19.82.88-30.21-22.38-30.21-22.38,0,0,10.39-23.3,30.21-22.39h0Z"/>
  <path class="cls-3" d="M55.84,363.69c9.57,7.36,8.86,16.77,6.88,23.06l-6.13,1.97-29.54-17.87,26.93,21.59.23,6.45c-5.21,4.03-13.83,7.91-24,1.47-16.77-10.61-11.94-35.64-11.94-35.64,0,0,21.86-13.13,37.57-1.03h0Z"/>
  <path class="cls-3" d="M168.2,323.82c13.97,19.74,7.09,37.38-.47,48.22-2.85,4.15-8.98,4.15-12.89.19l-46.08-51.65,38.88,57.27c2.88,4.75,1.38,10.69-3.32,12.46-12.39,4.75-31.17,7.09-46.91-11.27-25.87-30.26-1.86-75.42-1.86-75.42,0,0,49.63-12.27,72.65,20.2h0Z"/>
  <path class="cls-3" d="M127.43,581.23c20.45,1.74,28.17,15.9,31.09,26.74,1.11,4.11-2.25,8.1-6.96,8.46l-58.81,1.66,58.5,6.13c4.71.7,7.71,4.95,6.29,8.98-3.72,10.6-12.5,24.12-33.03,24.28-33.86.23-50.04-40.11-50.04-40.11,0,0,19.23-39,52.96-36.15h0Z"/>
  <path class="cls-3" d="M317.37,440.03c5.85,19.78-4.52,32.16-13.61,38.84-3.44,2.53-8.39.88-10.48-3.4l-23.02-54.34,15.66,56.91c1.06,4.63-1.78,9.01-6.09,9.18-11.28.39-27.1-2.85-34.77-22-12.62-31.53,19.14-61.43,19.14-61.43,0,0,43.47,3.72,53.16,36.24h0Z"/>
  <path class="cls-3" d="M390.38,290.52c13.33,21.15,5.3,38.99-3.08,49.79-3.21,4.11-9.54,3.8-13.33-.52l-44.78-55.8,37.02,61.23c2.74,5.06.88,11.08-4.07,12.69-13.05,4.19-32.59,5.58-47.82-14.24-25.08-32.63,2.13-77.92,2.13-77.92,0,0,51.93-10,73.93,24.77h0Z"/>
  <path class="cls-3" d="M336.03,128.75c19.11,16.1,16.89,35.56,12.14,48.38-1.83,4.87-7.91,6.53-12.86,3.56l-59.57-39.63,53.84,47.16c4.15,3.99,4.15,10.32-.08,13.32-11.12,7.95-29.35,15.19-49.84.92-33.82-23.5-21.6-74.92-21.6-74.92,0,0,46.48-25.24,77.96,1.22h0Z"/>
  <path class="cls-3" d="M319.89,677.69c13.14-21.23,32.72-21.83,46.08-19.03,5.1,1.08,7.6,6.88,5.38,12.23l-30.53,64.66,38.79-60.07c3.36-4.71,9.62-5.66,13.22-1.91,9.45,9.89,19.3,26.82,8.14,49.21-18.31,36.86-70.99,32.2-70.99,32.2,0,0-31.72-42.29-10.09-77.29h0Z"/>
  <path class="cls-3" d="M133.48,443.08c20.89,19.45,17.21,41.53,11.08,55.88-2.33,5.5-9.42,6.96-14.88,3.33l-65.69-48.66,58.73,56.88c4.47,4.83,4.16,12.03-.83,15.24-13.16,8.42-34.36,15.66-56.99-1.78-37.18-28.76-20.29-86.74-20.29-86.74,0,0,54.42-26.13,88.87,5.86h0Z"/>
  <path class="cls-3" d="M601.78,478.27c-10.17,10.53-7.71,21.76-4.19,28.96l7.72,1.3,32.39-26.66-28.6,30.7.84,7.79c6.95,3.96,18.03,7.12,29.15-2.45,18.31-15.7,8.1-44.97,8.1-44.97,0,0-28.6-11.99-45.41,5.34h0Z"/>
  <path class="cls-3" d="M601.27,120.69c.67,14.63,10.52,20.53,18.15,22.89l6.26-4.71,2.85-41.84,2.68,41.84,6.26,4.75c7.67-2.33,17.52-8.23,18.23-22.86,1.14-24.09-27.13-36.78-27.13-36.78,0,0-28.35,12.58-27.29,36.71h0Z"/>
  <path class="cls-3" d="M551.27,197.09c6.09,13.33,17.45,15.15,25.43,14.47l4.03-6.68-13.02-39.9,18.16,37.85,7.55,2.05c6.21-5.06,13.22-14.19,8.39-27.99-7.95-22.83-38.96-24.02-38.96-24.02,0,0-21.55,22.27-11.58,44.22Z"/>
  <path class="cls-3" d="M767.19,336.04c-6.01,10.45-1.82,18.87,2.45,23.94l6.4-.52,20.49-27.77-16.66,30.23,2.22,6.04c6.37,1.74,15.82,2.06,22.78-7.79,11.47-16.21-2.53-37.54-2.53-37.54,0,0-25.24-3.79-35.16,13.41h0Z"/>
  <path class="cls-3" d="M803.34,215.06c-13.01,13.68-9.69,28.12-5.06,37.38l9.97,1.58,41.45-34.77-36.5,39.95,1.14,10c9.06,5.02,23.33,8.98,37.57-3.48,23.42-20.48,9.93-58.1,9.93-58.1,0,0-37.02-15.11-58.5,7.43h0Z"/>
  <path class="cls-3" d="M822.28,665.55c-8.39-8.66-17.68-6.92-23.69-4.19l-1.27,6.29,21.08,27.33-24.52-24.33-6.4.52c-3.44,5.62-6.33,14.63,1.22,24.02,12.46,15.46,36.79,7.83,36.79,7.83,0,0,10.6-23.17-3.21-37.46h0Z"/>
  <path class="cls-3" d="M1006.04,544.88c-12.02.55-16.85,8.67-18.82,14.96l3.91,5.13,34.41,2.3-34.41,2.25-3.91,5.14c1.94,6.29,6.81,14.44,18.82,14.99,19.86.88,30.26-22.38,30.26-22.38,0,0-10.4-23.3-30.26-22.39h0Z"/>
  <path class="cls-3" d="M980.41,363.69c-9.53,7.36-8.86,16.77-6.84,23.06l6.13,1.97,29.54-17.87-26.93,21.59-.25,6.45c5.22,4.03,13.85,7.91,24.02,1.47,16.77-10.61,11.94-35.64,11.94-35.64,0,0-21.87-13.13-37.61-1.03h0Z"/>
  <path class="cls-3" d="M868.08,323.82c-13.96,19.74-7.12,37.38.48,48.22,2.85,4.15,8.97,4.15,12.9.19l46.04-51.65-38.84,57.27c-2.92,4.75-1.39,10.69,3.32,12.46,12.34,4.75,31.17,7.09,46.87-11.27,25.9-30.26,1.89-75.42,1.89-75.42,0,0-49.64-12.27-72.66,20.2h0Z"/>
  <path class="cls-3" d="M908.86,581.23c-20.44,1.74-28.15,15.9-31.08,26.74-1.11,4.11,2.25,8.1,6.96,8.46l58.77,1.66-58.5,6.13c-4.66.7-7.67,4.95-6.29,8.98,3.76,10.6,12.5,24.12,33.08,24.28,33.81.23,49.99-40.11,49.99-40.11,0,0-19.18-39-52.93-36.15h0Z"/>
  <path class="cls-3" d="M718.93,440.03c-5.85,19.78,4.51,32.16,13.61,38.84,3.44,2.53,8.39.88,10.44-3.4l23.06-54.34-15.71,56.91c-1.03,4.63,1.81,9.01,6.13,9.18,11.27.39,27.09-2.85,34.77-22,12.61-31.53-19.19-61.43-19.19-61.43,0,0-43.43,3.72-53.12,36.24h0Z"/>
  <path class="cls-3" d="M645.92,290.52c-13.33,21.15-5.3,38.99,3.08,49.79,3.21,4.11,9.53,3.8,13.33-.52l44.77-55.8-37.02,61.23c-2.77,5.06-.86,11.08,4.08,12.69,13.05,4.19,32.59,5.58,47.82-14.24,25.07-32.63-2.14-77.92-2.14-77.92,0,0-51.93-10-73.92,24.77h0Z"/>
  <path class="cls-3" d="M700.27,128.75c-19.11,16.1-16.89,35.56-12.14,48.38,1.78,4.87,7.92,6.53,12.85,3.56l59.57-39.63-53.83,47.16c-4.15,3.99-4.19,10.32.05,13.32,11.14,7.95,29.39,15.19,49.87.92,33.82-23.5,21.56-74.92,21.56-74.92,0,0-46.44-25.24-77.92,1.22h0Z"/>
  <path class="cls-3" d="M716.4,677.69c-13.16-21.23-32.75-21.83-46.08-19.03-5.1,1.08-7.59,6.88-5.37,12.23l30.53,64.66-38.8-60.07c-3.35-4.71-9.61-5.66-13.21-1.91-9.5,9.89-19.29,26.82-8.15,49.21,18.32,36.86,71,32.2,71,32.2,0,0,31.72-42.29,10.08-77.29h0Z"/>
  <path class="cls-3" d="M902.82,443.08c-20.89,19.45-17.21,41.53-11.08,55.88,2.33,5.5,9.42,6.96,14.86,3.33l65.7-48.66-58.74,56.88c-4.51,4.83-4.15,12.03.83,15.24,13.17,8.42,34.38,15.66,56.96-1.78,37.22-28.76,20.34-86.74,20.34-86.74,0,0-54.46-26.13-88.87,5.86h0Z"/>
  <path class="cls-1" d="M147.36,966.07c0,18.87-15.3,34.14-34.13,34.14s-34.17-15.27-34.17-34.14,15.3-34.13,34.17-34.13,34.13,15.27,34.13,34.13Z"/>
  <path class="cls-1" d="M169.75,1036.4c-18.15-26.71-48.96-38.44-78.6-27.69-14.47,5.26-26.77,16.3-36.07,30.03-22.63,33.45-50.82,79.69-41.5,90.82,7.2,8.58,40.27-32.4,49.49-44.19l2.37,1.14c.56,26.71,4.03,159.28,19.46,169.72l1.38-.11c2.02-1.94,7.68-11.2,9.26-55.3.15-4.51,1.14-8.98,3.16-13.02,2.73-5.41,7.43-11.71,14.52-11.71s11.55,5.98,14.27,11.31c2.17,4.23,3.25,8.98,3.41,13.72,1.54,43.59,7.15,52.92,9.17,54.94l1.47.15c15.38-10.44,18.86-143.02,19.42-169.72l2.37-1.14c9.26,11.79,44.14,43,51.34,34.46,9.57-11.39-22.07-49.8-44.93-83.42h0Z"/>
  <path class="cls-1" d="M350.9,938.98c0,19.5-15.82,35.31-35.31,35.31s-35.28-15.82-35.28-35.31,15.79-35.28,35.28-35.28,35.31,15.79,35.31,35.28Z"/>
  <path class="cls-1" d="M374.04,1020.74c-18.79-28.6-50.63-41.18-81.24-29.63-14.99,5.62-27.69,17.44-37.3,32.12-23.41,35.88-52.56,85.36-42.87,97.3,7.43,9.18,41.61-34.69,51.13-47.3l2.45,1.19c.6,28.59,4.19,170.63,20.09,181.82l1.47-.15c2.05-2.05,7.95-11.94,9.53-59.21.16-4.82,1.19-9.61,3.28-13.93,2.85-5.81,7.67-12.58,14.99-12.58s11.94,6.45,14.79,12.14c2.25,4.51,3.33,9.62,3.52,14.67,1.63,46.71,7.4,56.72,9.5,58.9l1.5.15c15.9-11.23,19.5-153.23,20.09-181.82l2.45-1.19c9.53,12.61,45.6,59.29,53.03,50.12,9.89-12.22-22.78-66.56-46.43-102.59h0Z"/>
  <path class="cls-1" d="M545.94,1027.14c0,15.43-12.54,27.96-27.97,27.96s-27.91-12.53-27.91-27.96,12.5-27.96,27.91-27.96,27.97,12.54,27.97,27.96Z"/>
  <path class="cls-1" d="M755.64,956.26c0,19.51-15.78,35.28-35.28,35.28s-35.32-15.78-35.32-35.28,15.82-35.32,35.32-35.32,35.28,15.82,35.28,35.32Z"/>
  <path class="cls-1" d="M778.82,1028.95c-18.79-27.6-50.67-39.75-81.24-28.63-15.02,5.46-27.73,16.85-37.3,31.01-23.41,34.64-52.6,82.39-42.91,93.94,7.43,8.86,41.61-33.5,51.13-45.69l2.45,1.14c.59,27.61,4.19,164.7,20.14,175.49l1.42-.11c2.1-2.02,7.95-11.59,9.53-57.16.19-4.66,1.22-9.29,3.32-13.49,2.81-5.62,7.67-12.11,14.99-12.11s11.94,6.21,14.79,11.71c2.26,4.35,3.33,9.25,3.48,14.19,1.63,45.05,7.4,54.7,9.5,56.8l1.5.15c15.9-10.84,19.5-147.88,20.09-175.49l2.45-1.14c9.54,12.19,43.71,54.54,51.18,45.69,9.89-11.8-20.92-61.59-44.53-96.32h0Z"/>
  <path class="cls-1" d="M932.12,996.25c0,16.89-13.69,30.62-30.57,30.62s-30.62-13.73-30.62-30.62,13.72-30.57,30.62-30.57,30.57,13.69,30.57,30.57Z"/>
  <path class="cls-1" d="M941.65,1049.29c-14.01-15.63-35.05-22.11-55.1-16.18-10.04,2.96-19.03,9.33-26.38,17.6-19.38,21.75-54.15,57.9-40.43,74.4,5.62,6.68,35.17-34.77,43.2-43.44l1.77.83c-1.34,20.17-9.8,158.88,5.86,173.63l1.54-.2c2.3-2.81,8.93-15.78,12.42-70.55.31-5.02,1.42-9.93,3.44-14.24,2.65-5.69,7.12-12.14,13.57-12.14s10.67,6.13,13.36,11.75c2.17,4.51,3.33,9.69,3.68,14.99,3.44,54.14,10.01,67.27,12.35,70.16l1.58.23c15.66-14.79,7.2-153.46,5.85-173.63l1.74-.83c8.07,8.67,39.71,41.73,44.47,34.38,6.04-9.42-23.5-45.09-42.92-66.76h0Z"/>
  <path class="cls-1" d="M566.14,1143.82h-1.14l-6.29-5.57v-4.87l6.29-5.62,6.32-5.58v-50.94l-6.32-5.58h-94.18l-6.32,5.58v50.94l6.32,5.58,6.29,5.62v4.87l-6.29,5.57h-1.14l-6.17,4.51-8.82,39.08c-.8,3.44,2.22,6.64,6.21,6.64h114.02c4,0,7.01-3.19,6.21-6.64l-8.81-39.08-6.18-4.51h0Z"/>
  <polygon class="cls-1" points="454.69 1188.27 581.25 1188.27 581.25 1206.15 454.69 1206.15 454.69 1188.27"/>
  <path class="cls-1" d="M450.29,1150.15h-6.32c-1.14,0-2.1,23.77-2.1,53.11s.95,53.17,2.1,53.17h6.32c1.16,0,2.1-23.81,2.1-53.17s-.94-53.11-2.1-53.11Z"/>
  <path class="cls-1" d="M591.97,1150.15h-6.33c-1.14,0-2.09,23.77-2.09,53.11s.94,53.17,2.09,53.17h6.33c1.14,0,2.1-23.81,2.1-53.17s-.95-53.11-2.1-53.11Z"/>
  <path class="cls-1" d="M556.45,1087.42c-10.04-12.03-23.93-18.92-38.49-18.84v127.91c5.15,0,8.67,4.43,10.69,8.43l2.53,10.2c1.14,32.55,5.38,39.51,6.88,41.01l1.07.12c11.47-7.84,14.08-106.76,14.47-126.65l.39-5.82c19.23,2.49,65.73,7.71,67.28-.24,1.94-10.04-64.83-36.14-64.83-36.14h0Z"/>
  <path class="cls-1" d="M479.41,1087.42s-66.76,26.1-64.83,36.14c1.58,7.95,48.05,2.73,67.28.24l.39,5.82c.39,19.89,3,118.81,14.47,126.65l1.11-.12c1.5-1.5,5.69-8.46,6.84-41.01l2.53-10.2c2.05-4,5.54-8.43,10.67-8.43v-127.91c-14.51-.08-28.43,6.8-38.48,18.84h0Z"/>
</svg>